<mxfile host="app.diagrams.net" modified="2024-03-15T08:26:45.962Z" agent="Mozilla/5.0 (Windows NT 10.0; Win64; x64) AppleWebKit/537.36 (KHTML, like Gecko) Chrome/122.0.0.0 Safari/537.36 Edg/122.0.0.0" etag="jXEwfWAFwLe_DRyybhlN" version="22.1.21" type="github">
  <diagram name="Страница — 1" id="TgV85QjSVcVYZDqP1wPA">
    <mxGraphModel dx="2213" dy="793" grid="1" gridSize="10" guides="1" tooltips="1" connect="1" arrows="1" fold="1" page="1" pageScale="1" pageWidth="827" pageHeight="1169" math="0" shadow="0">
      <root>
        <mxCell id="0" />
        <mxCell id="1" parent="0" />
        <mxCell id="714EKaEHQLsT-3FCsrPG-1" value="" style="edgeStyle=orthogonalEdgeStyle;rounded=0;orthogonalLoop=1;jettySize=auto;html=1;" edge="1" parent="1" source="714EKaEHQLsT-3FCsrPG-2" target="714EKaEHQLsT-3FCsrPG-11">
          <mxGeometry relative="1" as="geometry" />
        </mxCell>
        <mxCell id="714EKaEHQLsT-3FCsrPG-2" value="Ввод word" style="rounded=1;whiteSpace=wrap;html=1;" vertex="1" parent="1">
          <mxGeometry x="-90" y="570" width="200" height="60" as="geometry" />
        </mxCell>
        <mxCell id="714EKaEHQLsT-3FCsrPG-3" value="" style="edgeStyle=orthogonalEdgeStyle;rounded=0;orthogonalLoop=1;jettySize=auto;html=1;" edge="1" parent="1" source="714EKaEHQLsT-3FCsrPG-4" target="714EKaEHQLsT-3FCsrPG-5">
          <mxGeometry relative="1" as="geometry">
            <Array as="points">
              <mxPoint x="40" y="860" />
              <mxPoint x="40" y="860" />
            </Array>
          </mxGeometry>
        </mxCell>
        <mxCell id="714EKaEHQLsT-3FCsrPG-4" value="Если i % 2 == 0 и&amp;nbsp;word[i].lower() в vowels" style="rhombus;whiteSpace=wrap;html=1;" vertex="1" parent="1">
          <mxGeometry x="-120" y="665" width="260" height="120" as="geometry" />
        </mxCell>
        <mxCell id="714EKaEHQLsT-3FCsrPG-5" value="Count += 1" style="rounded=1;whiteSpace=wrap;html=1;" vertex="1" parent="1">
          <mxGeometry x="-80" y="880" width="200" height="60" as="geometry" />
        </mxCell>
        <mxCell id="714EKaEHQLsT-3FCsrPG-6" value="True" style="text;html=1;align=center;verticalAlign=middle;whiteSpace=wrap;rounded=0;" vertex="1" parent="1">
          <mxGeometry x="60" y="810" width="60" height="30" as="geometry" />
        </mxCell>
        <mxCell id="714EKaEHQLsT-3FCsrPG-7" value="" style="endArrow=classic;html=1;rounded=0;exitX=1;exitY=0.5;exitDx=0;exitDy=0;entryX=1;entryY=0.5;entryDx=0;entryDy=0;edgeStyle=orthogonalEdgeStyle;" edge="1" parent="1" source="714EKaEHQLsT-3FCsrPG-5" target="714EKaEHQLsT-3FCsrPG-4">
          <mxGeometry width="50" height="50" relative="1" as="geometry">
            <mxPoint x="330" y="940" as="sourcePoint" />
            <mxPoint x="380" y="890" as="targetPoint" />
            <Array as="points">
              <mxPoint x="120" y="940" />
              <mxPoint x="140" y="940" />
            </Array>
          </mxGeometry>
        </mxCell>
        <mxCell id="714EKaEHQLsT-3FCsrPG-8" value="Возвращает Count" style="rounded=1;whiteSpace=wrap;html=1;" vertex="1" parent="1">
          <mxGeometry x="-120" y="980" width="200" height="60" as="geometry" />
        </mxCell>
        <mxCell id="714EKaEHQLsT-3FCsrPG-9" value="" style="endArrow=classic;html=1;rounded=0;exitX=0;exitY=0.5;exitDx=0;exitDy=0;entryX=0;entryY=0.5;entryDx=0;entryDy=0;edgeStyle=orthogonalEdgeStyle;" edge="1" parent="1" source="714EKaEHQLsT-3FCsrPG-4" target="714EKaEHQLsT-3FCsrPG-8">
          <mxGeometry width="50" height="50" relative="1" as="geometry">
            <mxPoint x="70" y="1160" as="sourcePoint" />
            <mxPoint x="120" y="1110" as="targetPoint" />
            <Array as="points">
              <mxPoint x="-150" y="725" />
              <mxPoint x="-150" y="1010" />
            </Array>
          </mxGeometry>
        </mxCell>
        <mxCell id="714EKaEHQLsT-3FCsrPG-10" value="" style="edgeStyle=orthogonalEdgeStyle;rounded=0;orthogonalLoop=1;jettySize=auto;html=1;" edge="1" parent="1" source="714EKaEHQLsT-3FCsrPG-11" target="714EKaEHQLsT-3FCsrPG-12">
          <mxGeometry relative="1" as="geometry" />
        </mxCell>
        <mxCell id="714EKaEHQLsT-3FCsrPG-11" value="Разделение на отдельные слова" style="rounded=1;whiteSpace=wrap;html=1;" vertex="1" parent="1">
          <mxGeometry x="140" y="570" width="200" height="60" as="geometry" />
        </mxCell>
        <mxCell id="714EKaEHQLsT-3FCsrPG-12" value="Перебор каждого элемента" style="rhombus;whiteSpace=wrap;html=1;" vertex="1" parent="1">
          <mxGeometry x="400" y="550" width="200" height="100" as="geometry" />
        </mxCell>
        <mxCell id="714EKaEHQLsT-3FCsrPG-13" value="" style="endArrow=classic;html=1;rounded=0;exitX=0.29;exitY=0.81;exitDx=0;exitDy=0;entryX=0.5;entryY=0;entryDx=0;entryDy=0;edgeStyle=orthogonalEdgeStyle;exitPerimeter=0;" edge="1" parent="1" source="714EKaEHQLsT-3FCsrPG-12" target="714EKaEHQLsT-3FCsrPG-4">
          <mxGeometry width="50" height="50" relative="1" as="geometry">
            <mxPoint x="540" y="1020" as="sourcePoint" />
            <mxPoint x="590" y="970" as="targetPoint" />
            <Array as="points">
              <mxPoint x="458" y="620" />
              <mxPoint x="450" y="620" />
              <mxPoint x="450" y="700" />
              <mxPoint x="140" y="700" />
              <mxPoint x="140" y="665" />
            </Array>
          </mxGeometry>
        </mxCell>
        <mxCell id="714EKaEHQLsT-3FCsrPG-14" value="" style="edgeStyle=orthogonalEdgeStyle;rounded=0;orthogonalLoop=1;jettySize=auto;html=1;" edge="1" parent="1" source="714EKaEHQLsT-3FCsrPG-15" target="714EKaEHQLsT-3FCsrPG-19">
          <mxGeometry relative="1" as="geometry" />
        </mxCell>
        <mxCell id="714EKaEHQLsT-3FCsrPG-15" value="Рейтинга слова" style="rounded=1;whiteSpace=wrap;html=1;" vertex="1" parent="1">
          <mxGeometry x="400" y="760" width="200" height="60" as="geometry" />
        </mxCell>
        <mxCell id="714EKaEHQLsT-3FCsrPG-16" value="" style="endArrow=classic;html=1;rounded=0;exitX=1;exitY=0.5;exitDx=0;exitDy=0;entryX=0;entryY=0.5;entryDx=0;entryDy=0;edgeStyle=orthogonalEdgeStyle;" edge="1" parent="1" source="714EKaEHQLsT-3FCsrPG-8" target="714EKaEHQLsT-3FCsrPG-15">
          <mxGeometry width="50" height="50" relative="1" as="geometry">
            <mxPoint x="460" y="1040" as="sourcePoint" />
            <mxPoint x="510" y="990" as="targetPoint" />
            <Array as="points">
              <mxPoint x="80" y="1030" />
              <mxPoint x="210" y="1030" />
              <mxPoint x="210" y="790" />
            </Array>
          </mxGeometry>
        </mxCell>
        <mxCell id="714EKaEHQLsT-3FCsrPG-17" value="" style="endArrow=classic;html=1;rounded=0;exitX=0.5;exitY=0;exitDx=0;exitDy=0;entryX=0.5;entryY=1;entryDx=0;entryDy=0;" edge="1" parent="1" source="714EKaEHQLsT-3FCsrPG-15" target="714EKaEHQLsT-3FCsrPG-12">
          <mxGeometry width="50" height="50" relative="1" as="geometry">
            <mxPoint x="490" y="960" as="sourcePoint" />
            <mxPoint x="540" y="910" as="targetPoint" />
          </mxGeometry>
        </mxCell>
        <mxCell id="714EKaEHQLsT-3FCsrPG-18" value="Повторить" style="text;html=1;align=center;verticalAlign=middle;whiteSpace=wrap;rounded=0;" vertex="1" parent="1">
          <mxGeometry x="520" y="700" width="60" height="30" as="geometry" />
        </mxCell>
        <mxCell id="714EKaEHQLsT-3FCsrPG-19" value="Вывод слов по возрастанию их рейтингов" style="rounded=1;whiteSpace=wrap;html=1;" vertex="1" parent="1">
          <mxGeometry x="400" y="910" width="200" height="60" as="geometry" />
        </mxCell>
        <mxCell id="714EKaEHQLsT-3FCsrPG-20" value="Далее" style="text;html=1;align=center;verticalAlign=middle;whiteSpace=wrap;rounded=0;" vertex="1" parent="1">
          <mxGeometry x="490" y="870" width="60" height="30" as="geometry" />
        </mxCell>
        <mxCell id="714EKaEHQLsT-3FCsrPG-22" value="" style="edgeStyle=orthogonalEdgeStyle;rounded=0;orthogonalLoop=1;jettySize=auto;html=1;" edge="1" parent="1" source="714EKaEHQLsT-3FCsrPG-23" target="714EKaEHQLsT-3FCsrPG-26">
          <mxGeometry relative="1" as="geometry" />
        </mxCell>
        <mxCell id="714EKaEHQLsT-3FCsrPG-23" value="Ввод данных (ff) и сортировки (*args)" style="rounded=1;whiteSpace=wrap;html=1;" vertex="1" parent="1">
          <mxGeometry x="-187.5" y="1130" width="190" height="60" as="geometry" />
        </mxCell>
        <mxCell id="714EKaEHQLsT-3FCsrPG-24" value="" style="edgeStyle=orthogonalEdgeStyle;rounded=0;orthogonalLoop=1;jettySize=auto;html=1;" edge="1" parent="1" source="714EKaEHQLsT-3FCsrPG-26" target="714EKaEHQLsT-3FCsrPG-27">
          <mxGeometry relative="1" as="geometry" />
        </mxCell>
        <mxCell id="714EKaEHQLsT-3FCsrPG-25" value="" style="edgeStyle=orthogonalEdgeStyle;rounded=0;orthogonalLoop=1;jettySize=auto;html=1;" edge="1" parent="1" source="714EKaEHQLsT-3FCsrPG-26" target="714EKaEHQLsT-3FCsrPG-31">
          <mxGeometry relative="1" as="geometry" />
        </mxCell>
        <mxCell id="714EKaEHQLsT-3FCsrPG-26" value="Если все элементы числа" style="rhombus;whiteSpace=wrap;html=1;" vertex="1" parent="1">
          <mxGeometry x="-192.5" y="1220" width="200" height="80" as="geometry" />
        </mxCell>
        <mxCell id="714EKaEHQLsT-3FCsrPG-27" value="return tuple(filter(ff, args))" style="rounded=1;whiteSpace=wrap;html=1;" vertex="1" parent="1">
          <mxGeometry x="62.5" y="1230" width="150" height="60" as="geometry" />
        </mxCell>
        <mxCell id="714EKaEHQLsT-3FCsrPG-28" value="True" style="text;html=1;align=center;verticalAlign=middle;whiteSpace=wrap;rounded=0;" vertex="1" parent="1">
          <mxGeometry x="2.5" y="1230" width="60" height="30" as="geometry" />
        </mxCell>
        <mxCell id="714EKaEHQLsT-3FCsrPG-29" value="" style="edgeStyle=orthogonalEdgeStyle;rounded=0;orthogonalLoop=1;jettySize=auto;html=1;" edge="1" parent="1" source="714EKaEHQLsT-3FCsrPG-31" target="714EKaEHQLsT-3FCsrPG-33">
          <mxGeometry relative="1" as="geometry" />
        </mxCell>
        <mxCell id="714EKaEHQLsT-3FCsrPG-30" value="" style="edgeStyle=orthogonalEdgeStyle;rounded=0;orthogonalLoop=1;jettySize=auto;html=1;" edge="1" parent="1" source="714EKaEHQLsT-3FCsrPG-31" target="714EKaEHQLsT-3FCsrPG-35">
          <mxGeometry relative="1" as="geometry" />
        </mxCell>
        <mxCell id="714EKaEHQLsT-3FCsrPG-31" value="Если все элементы стоки" style="rhombus;whiteSpace=wrap;html=1;" vertex="1" parent="1">
          <mxGeometry x="-187.5" y="1320" width="190" height="80" as="geometry" />
        </mxCell>
        <mxCell id="714EKaEHQLsT-3FCsrPG-32" value="False" style="text;html=1;align=center;verticalAlign=middle;whiteSpace=wrap;rounded=0;" vertex="1" parent="1">
          <mxGeometry x="-97.5" y="1290" width="60" height="30" as="geometry" />
        </mxCell>
        <mxCell id="714EKaEHQLsT-3FCsrPG-33" value="return tuple(filter(lambda x: x[0].isupper(), args))" style="rounded=1;whiteSpace=wrap;html=1;" vertex="1" parent="1">
          <mxGeometry x="62.5" y="1330" width="150" height="60" as="geometry" />
        </mxCell>
        <mxCell id="714EKaEHQLsT-3FCsrPG-34" value="True" style="text;html=1;align=center;verticalAlign=middle;whiteSpace=wrap;rounded=0;" vertex="1" parent="1">
          <mxGeometry x="2.5" y="1330" width="60" height="30" as="geometry" />
        </mxCell>
        <mxCell id="714EKaEHQLsT-3FCsrPG-35" value="Ошибка" style="rounded=1;whiteSpace=wrap;html=1;" vertex="1" parent="1">
          <mxGeometry x="-181.25" y="1450" width="177.5" height="60" as="geometry" />
        </mxCell>
      </root>
    </mxGraphModel>
  </diagram>
</mxfile>
